<?xml version="1.0" standalone="no"?>
<!DOCTYPE svg PUBLIC "-//W3C//DTD SVG 20010904//EN"
    "http://www.w3.org/TR/2001/REC-SVG-20010904/DTD/svg10.dtd">
<svg version="1.0" xmlns="http://www.w3.org/2000/svg"
    width="300.000000pt" height="375.000000pt" viewBox="0 0 300.000000 375.000000"
    preserveAspectRatio="xMidYMid meet">
    <metadata>
        Created by potrace 1.10, written by Peter Selinger 2001-2011
    </metadata>
    <g transform="translate(0.000000,375.000000) scale(0.100000,-0.100000)"
        fill="#000000" stroke="none">
        <path d="M1460 3344 c-25 -8 -115 -18 -200 -23 -178 -9 -225 -23 -351 -106
-76 -51 -237 -203 -279 -265 -13 -19 32 19 101 85 68 67 140 132 159 145 33
23 32 21 -13 -30 -46 -52 -93 -127 -84 -136 5 -5 110 125 134 167 18 31 78 67
157 96 27 9 94 16 191 18 95 3 168 10 200 20 85 26 81 31 88 -111 6 -120 10
-145 22 -132 15 14 15 146 1 198 -8 30 -14 55 -13 56 1 1 36 -7 77 -17 50 -12
112 -19 186 -19 162 0 196 -19 382 -208 136 -138 166 -177 105 -135 -43 30
-55 33 -248 53 -528 57 -484 55 -775 36 -401 -27 -523 -41 -573 -65 -65 -32
-157 -104 -157 -123 0 -18 40 -35 205 -87 87 -28 126 -34 305 -46 113 -8 241
-16 285 -19 49 -4 74 -2 65 3 -8 5 -127 16 -265 26 -137 9 -253 19 -258 22 -4
2 1 16 12 31 23 33 76 138 86 172 l7 25 -26 -24 c-28 -26 -86 -134 -86 -160
-1 -38 -13 -41 -82 -22 -109 31 -218 75 -215 86 2 5 37 31 78 57 60 39 87 49
144 57 137 19 719 53 810 47 177 -12 295 -28 295 -41 0 -7 27 -65 59 -129 l59
-116 -112 -1 c-86 -1 -104 -3 -81 -10 52 -17 203 -2 298 30 47 16 112 35 144
41 113 22 133 30 133 49 0 9 -12 28 -26 42 -14 13 -30 33 -34 44 -15 35 -135
178 -217 256 -117 112 -162 131 -332 140 -75 4 -161 15 -191 23 -66 19 -110
19 -170 0z m704 -380 c127 -14 157 -27 221 -94 33 -34 37 -31 -85 -59 -47 -11
-116 -32 -154 -46 -38 -14 -75 -24 -81 -21 -7 2 -16 21 -20 42 -7 41 -58 149
-75 159 -5 3 -14 15 -20 25 -12 22 -21 22 214 -6z"/>
        <path d="M1512 2942 c-1 -40 -11 -98 -21 -130 -11 -31 -25 -102 -31 -156 -6
-54 -19 -114 -27 -132 -16 -31 -15 -34 18 -98 41 -79 51 -70 14 13 -25 55 -26
61 -11 82 8 13 20 67 27 119 23 179 37 136 23 -68 -6 -72 -10 -92 -23 -95 -14
-4 -14 -5 1 -6 14 -1 18 -14 20 -73 3 -71 2 -74 -29 -104 -20 -19 -36 -48 -44
-77 -6 -26 -17 -47 -24 -47 -18 0 -75 -33 -75 -43 0 -4 13 -1 30 8 43 22 47
20 53 -37 7 -58 2 -68 -55 -104 -111 -71 -132 11 -67 271 43 169 49 184 81
201 37 19 31 30 -6 12 -35 -16 -50 -46 -91 -182 -62 -212 -68 -309 -22 -341
27 -19 50 -19 86 0 l29 14 -18 -47 c-23 -61 -33 -133 -21 -152 16 -23 165 -20
211 5 19 10 40 25 46 33 10 14 13 13 24 -7 19 -37 94 -64 180 -65 l75 -1 4 30
c4 40 -19 166 -29 160 -5 -3 -7 -11 -5 -18 2 -7 6 -43 10 -81 l6 -69 -79 5
c-63 4 -89 10 -126 32 -25 15 -46 28 -46 29 0 1 7 24 15 51 8 27 13 52 10 54
-7 7 -7 5 -30 -52 -30 -74 -57 -89 -159 -90 -46 -1 -87 2 -90 5 -4 4 2 46 13
94 15 70 26 94 51 120 32 33 32 34 22 93 -10 55 -9 63 18 119 42 89 80 93 95
11 6 -33 5 -38 -13 -38 -30 0 -69 -36 -74 -70 -6 -39 24 -90 52 -90 12 0 35
-7 51 -16 44 -22 46 -11 4 21 -20 15 -39 24 -42 21 -11 -10 -33 16 -33 38 0
14 13 28 39 43 l39 23 19 -33 c11 -18 20 -55 21 -85 3 -80 11 -89 88 -98 84
-8 233 0 261 15 60 32 55 190 -14 404 -15 46 -32 81 -43 87 -29 16 -37 11 -14
-8 58 -46 111 -391 70 -448 -13 -17 -27 -19 -159 -19 -80 0 -149 4 -153 8 -5
5 -9 34 -9 65 l0 57 60 -5 c132 -10 138 -9 147 28 5 19 8 59 6 90 l-3 57 -8
-60 c-15 -115 -10 -107 -75 -98 -31 4 -80 8 -108 7 -47 0 -52 2 -64 30 -8 17
-15 38 -15 46 -4 46 -17 89 -30 100 -21 18 -21 182 0 200 13 10 15 9 15 -9 0
-33 27 -79 52 -87 17 -5 30 2 61 35 21 23 40 41 42 39 1 -2 -17 -61 -40 -133
-46 -141 -60 -199 -46 -191 17 11 63 141 81 226 l17 85 17 -32 c9 -18 30 -40
47 -49 38 -19 49 -13 15 10 -28 18 -70 86 -80 130 -4 16 -2 69 5 116 10 80 10
90 -9 133 -11 25 -29 50 -41 56 -19 11 -19 9 4 -25 26 -38 31 -82 18 -157 -5
-31 -13 -42 -38 -54 -32 -15 -65 -13 -93 5 -7 5 -16 34 -19 65 l-6 57 54 50
c29 27 50 52 47 55 -5 5 -45 -25 -95 -72 -13 -13 -26 -23 -28 -23 -3 0 -5 21
-5 48 0 37 6 53 25 74 47 51 102 49 155 -3 52 -53 70 -99 70 -183 0 -67 4 -81
40 -150 26 -49 40 -88 40 -113 0 -28 3 -34 10 -23 17 26 11 49 -31 133 -37 76
-40 86 -34 138 8 67 -5 122 -42 177 -58 84 -126 110 -195 74 l-37 -19 -4 66
-3 66 -2 -73z m29 -409 c-8 -14 -10 -6 -10 37 1 55 1 55 11 18 7 -25 6 -43 -1
-55z m89 17 c13 0 31 7 40 15 16 14 18 12 24 -27 7 -41 5 -45 -30 -76 -21 -18
-43 -31 -48 -29 -23 7 -54 81 -49 115 5 30 7 32 22 17 10 -8 28 -15 41 -15z"/>
        <path d="M1556 2387 c7 -87 52 -250 53 -195 1 46 -23 171 -43 223 l-16 40 6
-68z"/>
        <path d="M1317 1720 c-19 -78 -77 -407 -83 -473 -8 -95 1 -109 90 -136 161
-49 383 -52 483 -7 65 31 87 64 87 130 -2 119 -26 462 -34 476 -12 20 -12 -86
0 -314 11 -207 9 -217 -60 -256 -43 -24 -52 -25 -205 -24 -138 1 -172 4 -245
25 l-85 24 2 75 c2 41 17 166 34 278 16 112 28 209 26 215 -2 7 -6 1 -10 -13z"/>
        <path d="M1414 985 c3 -55 12 -134 22 -175 13 -57 17 -112 16 -228 -2 -140 0
-154 18 -172 24 -24 91 -27 110 -5 9 11 11 40 7 102 -6 88 -6 88 8 38 7 -27
14 -64 14 -81 1 -39 32 -67 72 -66 56 1 58 9 52 165 -4 100 -1 180 11 272 17
141 21 271 6 205 -5 -19 -18 -108 -31 -198 -17 -127 -21 -190 -16 -288 5 -135
1 -148 -45 -127 -16 7 -25 25 -35 69 -24 111 -26 147 -9 169 14 19 15 13 16
-68 0 -111 16 -106 25 9 6 67 3 117 -15 227 -39 247 -38 244 -39 148 0 -46 6
-128 15 -183 15 -99 15 -100 -5 -119 -12 -11 -21 -27 -21 -37 -1 -14 -3 -13
-13 5 -10 18 -11 -1 -9 -102 l4 -124 -25 -6 c-14 -4 -35 -1 -47 5 -21 11 -22
15 -15 123 6 102 4 126 -24 261 -17 82 -31 170 -32 195 0 25 -5 55 -10 66 -6
13 -8 -13 -5 -80z"/>
        <path d="M1550 984 c0 -36 -7 -122 -15 -191 -13 -102 -14 -140 -4 -202 17
-116 24 -111 25 17 0 64 4 190 9 280 6 119 5 162 -4 162 -7 0 -11 -23 -11 -66z"/>
    </g>
</svg>
